<svg width="81" height="60" viewBox="0 0 81 60" fill="none" xmlns="http://www.w3.org/2000/svg">
<path d="M23.0723 55.4314C22.5732 55.4314 22.1314 55.3606 21.747 55.2189C21.3693 55.0706 21.0489 54.8648 20.7859 54.6018C20.5296 54.332 20.334 54.0083 20.1991 53.6306C20.0642 53.2529 19.9967 52.8313 19.9967 52.3659V46.9432H19.1064C18.9445 46.9432 18.8063 46.8926 18.6916 46.7914C18.577 46.6835 18.5196 46.5284 18.5196 46.326V45.1018L20.1889 44.7781L20.8061 42.2185C20.887 41.8947 21.1163 41.7329 21.4941 41.7329H23.133V44.7983H25.6825V46.9432H23.133V52.1535C23.133 52.3963 23.1904 52.5986 23.305 52.7605C23.4264 52.9156 23.5984 52.9932 23.821 52.9932C23.9356 52.9932 24.0301 52.9831 24.1043 52.9628C24.1852 52.9359 24.2526 52.9089 24.3066 52.8819C24.3673 52.8482 24.4213 52.8212 24.4685 52.801C24.5224 52.774 24.5831 52.7605 24.6506 52.7605C24.745 52.7605 24.8192 52.7841 24.8732 52.8313C24.9339 52.8718 24.9946 52.9392 25.0553 53.0337L26.0063 54.5209C25.6016 54.8244 25.1463 55.0537 24.6405 55.2088C24.1346 55.3572 23.6119 55.4314 23.0723 55.4314ZM32.1654 44.6162C32.9613 44.6162 33.6863 44.741 34.3406 44.9906C34.9948 45.2401 35.5546 45.5976 36.02 46.063C36.4921 46.5284 36.8563 47.0949 37.1126 47.7626C37.3757 48.4236 37.5072 49.1689 37.5072 49.9985C37.5072 50.8349 37.3757 51.5903 37.1126 52.2648C36.8563 52.9325 36.4921 53.5024 36.02 53.9745C35.5546 54.4399 34.9948 54.8008 34.3406 55.0571C33.6863 55.3066 32.9613 55.4314 32.1654 55.4314C31.3628 55.4314 30.6309 55.3066 29.97 55.0571C29.3157 54.8008 28.7492 54.4399 28.2703 53.9745C27.7982 53.5024 27.4306 52.9325 27.1675 52.2648C26.9112 51.5903 26.7831 50.8349 26.7831 49.9985C26.7831 49.1689 26.9112 48.4236 27.1675 47.7626C27.4306 47.0949 27.7982 46.5284 28.2703 46.063C28.7492 45.5976 29.3157 45.2401 29.97 44.9906C30.6309 44.741 31.3628 44.6162 32.1654 44.6162ZM32.1654 53.1045C32.8871 53.1045 33.4165 52.8515 33.7538 52.3457C34.0977 51.8331 34.2697 51.0574 34.2697 50.0188C34.2697 48.9801 34.0977 48.2078 33.7538 47.7019C33.4165 47.1961 32.8871 46.9432 32.1654 46.9432C31.4235 46.9432 30.8805 47.1961 30.5365 47.7019C30.1925 48.2078 30.0206 48.9801 30.0206 50.0188C30.0206 51.0574 30.1925 51.8331 30.5365 52.3457C30.8805 52.8515 31.4235 53.1045 32.1654 53.1045ZM39.2287 58.5981V44.7781H41.1712C41.3668 44.7781 41.5286 44.8219 41.6568 44.9096C41.7917 44.9973 41.8861 45.1288 41.9401 45.3042L42.1728 46.0731C42.3751 45.8505 42.5909 45.6482 42.8203 45.4661C43.0563 45.284 43.3059 45.1288 43.5689 45.0007C43.8387 44.8658 44.1254 44.7612 44.4289 44.687C44.7391 44.6129 45.0764 44.5758 45.4406 44.5758C45.9869 44.5758 46.4928 44.6972 46.9582 44.94C47.4235 45.1828 47.8248 45.5335 48.1621 45.9922C48.4993 46.4508 48.7624 47.014 48.9512 47.6817C49.1468 48.3427 49.2446 49.0947 49.2446 49.9378C49.2446 50.727 49.1333 51.4554 48.9107 52.1231C48.6949 52.7908 48.388 53.3709 47.9901 53.8633C47.5989 54.3556 47.1268 54.7401 46.5737 55.0166C46.0274 55.2931 45.4204 55.4314 44.7526 55.4314C44.2063 55.4314 43.7477 55.3538 43.3767 55.1987C43.0057 55.0436 42.6685 54.8345 42.365 54.5715V58.5981H39.2287ZM44.3479 46.9735C44.1186 46.9735 43.9095 46.9971 43.7207 47.0443C43.5386 47.0848 43.3666 47.1455 43.2047 47.2264C43.0496 47.3074 42.9046 47.4119 42.7697 47.5401C42.6348 47.6615 42.4999 47.8031 42.365 47.965V52.4165C42.6011 52.6796 42.8574 52.865 43.1339 52.973C43.4104 53.0741 43.7004 53.1247 44.004 53.1247C44.294 53.1247 44.5604 53.0674 44.8032 52.9527C45.046 52.8381 45.2551 52.6559 45.4305 52.4064C45.6126 52.1501 45.7542 51.8196 45.8554 51.4149C45.9566 51.0102 46.0071 50.5179 46.0071 49.9378C46.0071 49.3848 45.9667 48.9194 45.8857 48.5417C45.8048 48.164 45.6901 47.8604 45.5418 47.6311C45.4001 47.3951 45.2281 47.2264 45.0258 47.1253C44.8234 47.0241 44.5975 46.9735 44.3479 46.9735ZM54.1641 44.7781V55.2695H51.0278V44.7781H54.1641ZM54.5283 41.9048C54.5283 42.1544 54.4777 42.3905 54.3765 42.613C54.2753 42.8289 54.1371 43.0211 53.9617 43.1897C53.7863 43.3516 53.5806 43.4831 53.3446 43.5843C53.1152 43.6787 52.8691 43.7259 52.606 43.7259C52.3497 43.7259 52.1103 43.6787 51.8877 43.5843C51.6651 43.4831 51.4662 43.3516 51.2908 43.1897C51.1222 43.0211 50.9873 42.8289 50.8861 42.613C50.7917 42.3905 50.7445 42.1544 50.7445 41.9048C50.7445 41.6485 50.7917 41.4091 50.8861 41.1865C50.9873 40.964 51.1222 40.7684 51.2908 40.5997C51.4662 40.4311 51.6651 40.2996 51.8877 40.2052C52.1103 40.1107 52.3497 40.0635 52.606 40.0635C52.8691 40.0635 53.1152 40.1107 53.3446 40.2052C53.5806 40.2996 53.7863 40.4311 53.9617 40.5997C54.1371 40.7684 54.2753 40.964 54.3765 41.1865C54.4777 41.4091 54.5283 41.6485 54.5283 41.9048ZM64.2641 47.2669C64.1697 47.3816 64.0786 47.4726 63.9909 47.5401C63.9032 47.6075 63.7785 47.6412 63.6166 47.6412C63.4615 47.6412 63.3198 47.6041 63.1917 47.53C63.0703 47.4558 62.932 47.3748 62.7769 47.2871C62.6217 47.1927 62.4396 47.1084 62.2305 47.0342C62.0215 46.96 61.7618 46.9229 61.4515 46.9229C61.0671 46.9229 60.7332 46.9937 60.4499 47.1354C60.1734 47.277 59.9441 47.4794 59.762 47.7424C59.5799 48.0055 59.445 48.3292 59.3573 48.7137C59.2696 49.0914 59.2258 49.5196 59.2258 49.9985C59.2258 51.0035 59.418 51.7758 59.8024 52.3153C60.1936 52.8549 60.7298 53.1247 61.4111 53.1247C61.7753 53.1247 62.0619 53.0809 62.271 52.9932C62.4868 52.8988 62.6689 52.7976 62.8173 52.6897C62.9657 52.575 63.1006 52.4705 63.222 52.376C63.3502 52.2816 63.5087 52.2344 63.6975 52.2344C63.9471 52.2344 64.1359 52.3255 64.2641 52.5076L65.1746 53.6306C64.8509 54.0015 64.5103 54.305 64.1528 54.5411C63.7953 54.7704 63.4277 54.9525 63.05 55.0874C62.6791 55.2156 62.3047 55.3033 61.927 55.3505C61.5493 55.4044 61.1817 55.4314 60.8243 55.4314C60.1835 55.4314 59.5697 55.31 58.983 55.0672C58.4029 54.8244 57.8903 54.4737 57.4452 54.015C57.0067 53.5496 56.656 52.9797 56.393 52.3052C56.1367 51.6307 56.0085 50.8618 56.0085 49.9985C56.0085 49.2431 56.1198 48.5383 56.3424 47.8841C56.5717 47.2231 56.9056 46.6531 57.344 46.1743C57.7891 45.6886 58.3355 45.3076 58.983 45.031C59.6372 44.7545 60.3926 44.6162 61.2492 44.6162C62.072 44.6162 62.7937 44.7478 63.4142 45.0108C64.0348 45.2738 64.5946 45.6583 65.0937 46.1641L64.2641 47.2669ZM72.9512 47.0747C72.8702 47.2028 72.7826 47.2939 72.6881 47.3478C72.6005 47.4018 72.4858 47.4288 72.3442 47.4288C72.1958 47.4288 72.0474 47.3984 71.899 47.3377C71.7506 47.2703 71.5887 47.1995 71.4134 47.1253C71.2448 47.0511 71.0525 46.9836 70.8367 46.9229C70.6209 46.8555 70.3747 46.8218 70.0982 46.8218C69.7002 46.8218 69.3933 46.8993 69.1775 47.0544C68.9684 47.2028 68.8639 47.4119 68.8639 47.6817C68.8639 47.8773 68.9313 48.0392 69.0662 48.1673C69.2079 48.2955 69.3933 48.4101 69.6227 48.5113C69.852 48.6057 70.1117 48.6968 70.4017 48.7845C70.6917 48.8722 70.9885 48.97 71.292 49.0779C71.5955 49.1858 71.8923 49.3139 72.1823 49.4623C72.4723 49.604 72.732 49.7827 72.9613 49.9985C73.1906 50.2076 73.3727 50.4639 73.5076 50.7674C73.6493 51.0709 73.7201 51.4352 73.7201 51.8601C73.7201 52.3794 73.6257 52.8583 73.4368 53.2967C73.248 53.7351 72.9647 54.1128 72.587 54.4298C72.216 54.7468 71.754 54.993 71.2009 55.1684C70.6546 55.3437 70.024 55.4314 69.309 55.4314C68.9516 55.4314 68.5941 55.3977 68.2366 55.3302C67.8791 55.2628 67.5318 55.1717 67.1946 55.0571C66.8641 54.9424 66.5572 54.8075 66.2739 54.6524C65.9906 54.4905 65.7478 54.3185 65.5455 54.1364L66.2739 52.9831C66.3616 52.8482 66.4661 52.7436 66.5875 52.6694C66.7089 52.5885 66.8674 52.548 67.063 52.548C67.2451 52.548 67.407 52.5885 67.5487 52.6694C67.697 52.7504 67.8555 52.8381 68.0242 52.9325C68.1928 53.0269 68.3884 53.1146 68.6109 53.1955C68.8403 53.2765 69.1269 53.3169 69.4709 53.3169C69.7137 53.3169 69.9194 53.2933 70.088 53.2461C70.2567 53.1922 70.3916 53.1213 70.4927 53.0337C70.5939 52.946 70.6681 52.8482 70.7153 52.7403C70.7625 52.6323 70.7861 52.5211 70.7861 52.4064C70.7861 52.1973 70.7153 52.0253 70.5737 51.8904C70.432 51.7555 70.2465 51.6409 70.0172 51.5464C69.7879 51.4453 69.5249 51.3542 69.2281 51.2733C68.9381 51.1856 68.6413 51.0878 68.3378 50.9799C68.0343 50.872 67.7341 50.7438 67.4374 50.5954C67.1473 50.4403 66.8877 50.2481 66.6583 50.0188C66.429 49.7827 66.2435 49.496 66.1019 49.1588C65.9603 48.8216 65.8894 48.4135 65.8894 47.9346C65.8894 47.4895 65.9738 47.0679 66.1424 46.67C66.3177 46.2653 66.5774 45.9112 66.9214 45.6077C67.2654 45.3042 67.697 45.0648 68.2164 44.8894C68.7357 44.7073 69.3428 44.6162 70.0375 44.6162C70.4152 44.6162 70.7794 44.65 71.1301 44.7174C71.4876 44.7848 71.8214 44.8793 72.1317 45.0007C72.442 45.1221 72.7252 45.2671 72.9815 45.4357C73.2378 45.5976 73.4638 45.7763 73.6594 45.9719L72.9512 47.0747Z" fill="#002645"/>
<path d="M14.3847 9.1333C14.3847 16.6743 14.3847 44.5712 14.3847 47.2129C14.3847 58.4541 2.99998 58.0326 3 47.2129C3.00001 38.0794 15.7869 25.9249 27.2389 9.1333C40.6581 19.8827 50.7049 38.0794 27.2389 38.0794" stroke="white" stroke-width="4.21546" stroke-linecap="round" stroke-linejoin="round"/>
<rect x="11.5714" width="5.62061" height="5.62061" rx="2.8103" fill="white"/>
</svg>
