<?xml version="1.0" standalone="no"?>
<!DOCTYPE svg PUBLIC "-//W3C//DTD SVG 20010904//EN"
 "http://www.w3.org/TR/2001/REC-SVG-20010904/DTD/svg10.dtd">
<svg version="1.0" xmlns="http://www.w3.org/2000/svg"
 width="800.000000pt" height="800.000000pt" viewBox="0 0 800.000000 800.000000"
 preserveAspectRatio="xMidYMid meet">
<metadata>
Created by potrace 1.14, written by Peter Selinger 2001-2017
</metadata>
<g transform="translate(0.000000,800.000000) scale(0.100000,-0.100000)"
fill="#000000" stroke="none">
<path d="M3135 6861 c-86 -22 -157 -77 -197 -154 -18 -34 -23 -58 -23 -127 0
-76 3 -91 29 -138 54 -96 137 -145 251 -146 216 -3 352 217 254 412 -33 67
-72 105 -135 133 -47 21 -136 31 -179 20z"/>
<path d="M3115 6068 c-26 -15 -48 -39 -62 -68 l-23 -44 0 -876 0 -876 -151
-199 c-438 -579 -646 -894 -810 -1227 -196 -399 -253 -709 -193 -1050 76 -440
352 -736 704 -755 213 -12 403 73 545 244 66 79 155 254 185 363 50 179 50
189 50 1386 l0 1121 232 299 c309 398 652 854 822 1094 77 107 140 197 142
199 14 16 483 -448 625 -619 316 -380 507 -707 596 -1020 30 -103 42 -295 24
-381 -43 -208 -192 -352 -465 -448 -172 -61 -392 -95 -707 -109 -162 -7 -167
-8 -204 -36 -90 -69 -86 -200 9 -270 26 -20 40 -21 229 -20 701 4 1199 221
1394 608 100 199 114 485 37 756 -102 356 -315 721 -668 1145 -180 216 -582
605 -784 758 -103 78 -194 59 -275 -55 -303 -432 -552 -772 -851 -1158 l-151
-195 -5 677 c-5 664 -5 677 -26 704 -54 73 -145 94 -219 52z m-95 -4238 c-26
-201 -83 -333 -185 -428 -54 -51 -77 -65 -135 -83 -85 -25 -129 -21 -217 21
-183 86 -293 325 -293 635 0 243 80 489 266 823 110 197 353 563 523 787 l46
60 3 -865 c2 -581 -1 -893 -8 -950z"/>
</g>
</svg>
